<?xml version="1.0" encoding="UTF-8" standalone="no"?>
<!DOCTYPE svg PUBLIC "-//W3C//DTD SVG 1.1//EN" "http://www.w3.org/Graphics/SVG/1.1/DTD/svg11.dtd">
<svg width="100%" height="100%" viewBox="0 0 200 60" version="1.1" xmlns="http://www.w3.org/2000/svg" xmlns:xlink="http://www.w3.org/1999/xlink" xml:space="preserve" xmlns:serif="http://www.serif.com/" style="fill-rule:evenodd;clip-rule:evenodd;stroke-linejoin:round;stroke-miterlimit:2;">
    <g transform="matrix(0.106462,0,0,0.106462,-0.0694315,1.02037)">
        <g id="text20" transform="matrix(0.931503,0,0,1.07353,588.427,400.948)">
            <text x="0px" y="0px" style="font-family:'Helvetica';font-size:89.424px;fill:rgb(87,87,87);">Multi-Agent Research &amp; Simulation</text>
        </g>
        <g transform="matrix(1,0,0,1,611.152,244.666)">
            <g id="text12">
                <text x="0px" y="0px" style="font-family:'Helvetica-Bold', 'Helvetica';font-weight:700;font-size:183.827px;">MARS GROUP</text>
            </g>
        </g>
        <g id="Außenring">
            <path id="path3029" d="M272.816,4.612C220.273,4.612 171.264,19.761 129.921,45.922C131.366,47.64 132.722,49.425 133.969,51.291C174.18,25.963 221.782,11.302 272.816,11.302C416.909,11.302 533.72,128.113 533.72,272.206C533.72,416.299 416.909,533.109 272.816,533.109C128.723,533.109 11.913,416.299 11.913,272.206C11.913,220.946 26.701,173.147 52.236,132.823C50.376,131.579 48.577,130.239 46.867,128.792C20.503,170.244 5.223,219.442 5.223,272.206C5.223,419.993 125.028,539.799 272.816,539.799C420.604,539.799 540.409,419.993 540.409,272.206C540.409,124.418 420.604,4.612 272.816,4.612Z" style="fill:rgb(204,133,29);fill-rule:nonzero;"/>
            <path id="path3029-0" d="M273.418,70.34C162.577,70.34 72.723,160.194 72.723,271.035C72.723,381.876 162.577,471.73 273.418,471.73C384.259,471.73 474.113,381.876 474.113,271.035C474.113,233.843 463.999,199.014 446.367,169.149C445.15,170.337 443.84,171.43 442.453,172.41C459.386,201.369 469.096,235.068 469.096,271.035C469.096,379.105 381.488,466.713 273.418,466.713C165.348,466.713 77.741,379.105 77.741,271.035C77.741,162.965 165.348,75.357 273.418,75.357C322.417,75.357 367.217,93.362 401.545,123.123C402.755,121.941 404.054,120.86 405.442,119.878C370.154,89.03 323.971,70.34 273.418,70.34Z" style="fill:rgb(204,133,29);fill-rule:nonzero;"/>
            <path id="path3012" d="M265.032,399.055C214.385,396.032 169.384,362.635 151.839,315.05C143.056,291.229 141.691,262.762 148.18,238.718C158.315,201.156 184.688,170.197 220.112,154.276C237.102,146.64 253.235,143.204 272.601,143.095C293.239,142.979 307.993,146.052 326.965,154.418C361.711,169.741 389.308,202.276 398.687,238.976C404.025,259.863 403.971,283.877 398.541,303.809C383.918,357.487 336.786,395.789 281.305,399.081C276.934,399.34 269.611,399.329 265.032,399.055Z" style="fill:rgb(204,133,29);fill-rule:nonzero;"/>
            <path id="path3012-9" d="M82.04,138.32C61.071,137.057 42.439,123.103 35.175,103.221C31.538,93.267 30.973,81.373 33.66,71.327C37.856,55.633 48.775,42.697 63.442,36.045C70.476,32.854 77.156,31.419 85.174,31.373C93.719,31.325 99.827,32.609 107.682,36.104C122.068,42.506 133.494,56.101 137.378,71.435C139.588,80.162 139.565,90.196 137.317,98.524C131.263,120.952 111.749,136.955 88.778,138.331C86.968,138.439 83.936,138.434 82.04,138.32Z" style="fill:rgb(204,133,29);fill-rule:nonzero;"/>
            <path id="path3012-9-4" d="M423.957,171.523C413.472,170.892 404.156,163.915 400.524,153.973C398.706,148.997 398.423,143.05 399.767,138.027C401.865,130.179 407.324,123.712 414.658,120.386C418.175,118.79 421.515,118.072 425.524,118.05C429.796,118.026 432.851,118.668 436.778,120.415C443.971,123.616 449.684,130.413 451.626,138.081C452.731,142.444 452.72,147.461 451.595,151.625C448.568,162.839 438.811,170.841 427.326,171.529C426.421,171.583 424.905,171.58 423.957,171.523Z" style="fill:rgb(204,133,29);fill-rule:nonzero;"/>
        </g>
    </g>
</svg>
