<?xml version="1.0" encoding="UTF-8" standalone="no"?>
<!DOCTYPE svg PUBLIC "-//W3C//DTD SVG 1.1//EN" "http://www.w3.org/Graphics/SVG/1.1/DTD/svg11.dtd">
<svg version="1.1" xmlns="http://www.w3.org/2000/svg" xmlns:xl="http://www.w3.org/1999/xlink" xmlns:dc="http://purl.org/dc/elements/1.1/" viewBox="493 299 616 357" width="616" height="357">
  <defs>
    <marker orient="auto" overflow="visible" markerUnits="strokeWidth" id="CrowBar_Marker" stroke-linejoin="miter" stroke-miterlimit="10" viewBox="-15 -5 16 10" markerWidth="16" markerHeight="10" color="black">
      <g>
        <path d="M -14 0 L 0 0 M -14 -4 L -4 0 L -14 4 M 0 -4 L 0 4" fill="none" stroke="currentColor" stroke-width="1"/>
      </g>
    </marker>
    <filter id="Shadow" filterUnits="userSpaceOnUse" x="431.4" y="263.3">
      <feOffset in="SourceAlpha" result="offset" dx="0" dy="2"/>
      <feFlood flood-color="#919191" flood-opacity=".25" result="flood"/>
      <feComposite in="flood" in2="offset" operator="in" result="color"/>
      <feMerge>
        <feMergeNode in="color"/>
        <feMergeNode in="SourceGraphic"/>
      </feMerge>
    </filter>
    <marker orient="auto" overflow="visible" markerUnits="strokeWidth" id="CrowBar_Marker_2" stroke-linejoin="miter" stroke-miterlimit="10" viewBox="-15 -5 16 10" markerWidth="16" markerHeight="10" color="#a5a5a5">
      <g>
        <path d="M -14 0 L 0 0 M -14 -4 L -4 0 L -14 4 M 0 -4 L 0 4" fill="none" stroke="currentColor" stroke-width="1"/>
      </g>
    </marker>
  </defs>
  <g id="Canvas_1" stroke-dasharray="none" stroke="none" stroke-opacity="1" fill-opacity="1" fill="none">
    <title>Canvas 1</title>
    <g id="Canvas_1_Layer_1">
      <title>Layer 1</title>
      <g id="Line_49">
        <line x1="682.4218" y1="585" x2="694.7514" y2="623.2271" stroke="#a5a5a5" stroke-linecap="butt" stroke-linejoin="miter" stroke-dasharray="4.0,4.0" stroke-width="1"/>
      </g>
      <g id="Graphic_11">
        <rect x="620" y="420" width="81" height="36" fill="white"/>
        <rect x="620" y="420" width="81" height="36" stroke="black" stroke-linecap="round" stroke-linejoin="round" stroke-width="1"/>
        <text transform="translate(625 431)" fill="black">
          <tspan font-family="Helvetica" font-size="12" fill="black" x="17.168945" y="11">District</tspan>
        </text>
      </g>
      <g id="Graphic_12">
        <ellipse cx="539" cy="498.5" rx="45.0000719055854" ry="22.5000359527927" fill="white"/>
        <ellipse cx="539" cy="498.5" rx="45.0000719055854" ry="22.5000359527927" stroke="black" stroke-linecap="round" stroke-linejoin="round" stroke-width="1"/>
        <text transform="translate(508 491.5)" fill="black">
          <tspan font-family="Helvetica" font-size="12" fill="black" x="4.6591797" y="11">Geometry</tspan>
        </text>
      </g>
      <g id="Graphic_13">
        <ellipse cx="539" cy="438" rx="45.0000719055854" ry="22.5000359527927" fill="white"/>
        <ellipse cx="539" cy="438" rx="45.0000719055854" ry="22.5000359527927" stroke="black" stroke-linecap="round" stroke-linejoin="round" stroke-width="1"/>
        <text transform="translate(508 431)" fill="black">
          <tspan font-family="Helvetica" font-size="12" fill="black" x="14.995117" y="11">Name</tspan>
        </text>
      </g>
      <g id="Graphic_14">
        <ellipse cx="539" cy="377.5" rx="45.0000719055854" ry="22.5000359527927" fill="white"/>
        <ellipse cx="539" cy="377.5" rx="45.0000719055854" ry="22.5000359527927" stroke="black" stroke-linecap="round" stroke-linejoin="round" stroke-width="1"/>
        <text transform="translate(508 370.5)" fill="black">
          <tspan font-family="Helvetica" font-size="12" fill="black" x="11.986328" y="11">Region</tspan>
        </text>
      </g>
      <g id="Line_15">
        <line x1="620" y1="438" x2="584.5" y2="438" stroke="black" stroke-linecap="butt" stroke-linejoin="miter" stroke-width="1"/>
      </g>
      <g id="Line_16">
        <line x1="620" y1="420" x2="570.48695" y2="394.02093" stroke="black" stroke-linecap="butt" stroke-linejoin="miter" stroke-width="1"/>
      </g>
      <g id="Line_17">
        <line x1="620" y1="456" x2="570.48695" y2="481.97907" stroke="black" stroke-linecap="butt" stroke-linejoin="miter" stroke-width="1"/>
      </g>
      <g id="Graphic_18">
        <rect x="757.5" y="365.75" width="81" height="36" fill="white"/>
        <rect x="757.5" y="365.75" width="81" height="36" stroke="black" stroke-linecap="round" stroke-linejoin="round" stroke-width="1"/>
        <text transform="translate(762.5 376.75)" fill="black">
          <tspan font-family="Helvetica" font-size="12" fill="black" x="2.4794922" y="11">Pop. density</tspan>
        </text>
      </g>
      <g id="Line_19">
        <line x1="743.70195" y1="406.2069" x2="701" y2="420" marker-start="url(#CrowBar_Marker)" stroke="black" stroke-linecap="butt" stroke-linejoin="miter" stroke-width="1"/>
      </g>
      <g id="Graphic_20">
        <ellipse cx="913.75" cy="322.25" rx="45.0000719055855" ry="22.5000359527927" fill="white"/>
        <ellipse cx="913.75" cy="322.25" rx="45.0000719055855" ry="22.5000359527927" stroke="black" stroke-linecap="round" stroke-linejoin="round" stroke-width="1"/>
        <text transform="translate(882.75 315.25)" fill="black">
          <tspan font-family="Helvetica" font-size="12" fill="black" x="18.876953" y="11">Year</tspan>
        </text>
      </g>
      <g id="Graphic_21">
        <ellipse cx="798" cy="322.25" rx="45.0000719055855" ry="22.5000359527927" fill="white"/>
        <ellipse cx="798" cy="322.25" rx="45.0000719055855" ry="22.5000359527927" stroke="black" stroke-linecap="round" stroke-linejoin="round" stroke-width="1"/>
        <text transform="translate(767 315.25)" fill="black">
          <tspan font-family="Helvetica" font-size="12" fill="black" x="11.989258" y="11">Source</tspan>
        </text>
      </g>
      <g id="Graphic_22">
        <ellipse cx="1027" cy="322.25" rx="45.0000719055854" ry="22.5000359527927" fill="white"/>
        <ellipse cx="1027" cy="322.25" rx="45.0000719055854" ry="22.5000359527927" stroke="black" stroke-linecap="round" stroke-linejoin="round" stroke-width="1"/>
        <text transform="translate(996 315.25)" fill="black">
          <tspan font-family="Helvetica" font-size="12" fill="black" x="16.09668" y="11">Value</tspan>
        </text>
      </g>
      <g id="Line_23">
        <line x1="838.5" y1="365.75" x2="883.8775" y2="339.51847" stroke="black" stroke-linecap="butt" stroke-linejoin="miter" stroke-width="1"/>
      </g>
      <g id="Line_24">
        <line x1="798" y1="365.75" x2="798" y2="345.25" stroke="black" stroke-linecap="butt" stroke-linejoin="miter" stroke-width="1"/>
      </g>
      <g id="Line_25">
        <line x1="838.5" y1="375.79614" x2="987.3827" y2="333.50385" stroke="black" stroke-linecap="butt" stroke-linejoin="miter" stroke-width="1"/>
      </g>
      <g id="Group_26">
        <title>Note</title>
        <g id="Graphic_28" filter="url(#Shadow)">
          <path d="M 978 400.5 L 1093 400.5 L 1108 415.5 L 1108 475.5 L 978 475.5 Z" fill="white"/>
          <path d="M 978 400.5 L 1093 400.5 L 1108 415.5 L 1108 475.5 L 978 475.5 Z" stroke="#b9c0c1" stroke-linecap="round" stroke-linejoin="round" stroke-width="2"/>
          <text transform="translate(984 429)" fill="#515556">
            <tspan font-family="Avenir" font-size="13" fill="#515556" x="17.2115" y="13">mean, sum, …</tspan>
          </text>
        </g>
        <g id="Line_27">
          <path d="M 1093 400.5 L 1093 415.5 L 1108 415.5 L 1108 415.5" stroke="#b9c0c1" stroke-linecap="round" stroke-linejoin="round" stroke-width="2"/>
        </g>
      </g>
      <g id="Line_29">
        <line x1="1031.5769" y1="344.63404" x2="1042.7955" y2="399.5" stroke="#a5a5a5" stroke-linecap="round" stroke-linejoin="round" stroke-dasharray="4.0,4.0" stroke-width="1"/>
      </g>
      <g id="Graphic_31">
        <rect x="760" y="469.75" width="81" height="36" fill="white"/>
        <rect x="760" y="469.75" width="81" height="36" stroke="black" stroke-linecap="round" stroke-linejoin="round" stroke-width="1"/>
        <text transform="translate(765 480.75)" fill="black">
          <tspan font-family="Helvetica" font-size="12" fill="black" x="6.8125" y="11">Pop. count</tspan>
        </text>
      </g>
      <g id="Graphic_32">
        <ellipse cx="909" cy="553.75" rx="45.0000719055855" ry="22.5000359527927" fill="white"/>
        <ellipse cx="909" cy="553.75" rx="45.0000719055855" ry="22.5000359527927" stroke="black" stroke-linecap="round" stroke-linejoin="round" stroke-width="1"/>
        <text transform="translate(878 546.75)" fill="black">
          <tspan font-family="Helvetica" font-size="12" fill="black" x="18.876953" y="11">Year</tspan>
        </text>
      </g>
      <g id="Graphic_33">
        <ellipse cx="800.5" cy="553.75" rx="45.0000719055855" ry="22.5000359527927" fill="white"/>
        <ellipse cx="800.5" cy="553.75" rx="45.0000719055855" ry="22.5000359527927" stroke="black" stroke-linecap="round" stroke-linejoin="round" stroke-width="1"/>
        <text transform="translate(769.5 546.75)" fill="black">
          <tspan font-family="Helvetica" font-size="12" fill="black" x="11.989258" y="11">Source</tspan>
        </text>
      </g>
      <g id="Graphic_34">
        <ellipse cx="1027" cy="553.75" rx="45.0000719055854" ry="22.5000359527927" fill="white"/>
        <ellipse cx="1027" cy="553.75" rx="45.0000719055854" ry="22.5000359527927" stroke="black" stroke-linecap="round" stroke-linejoin="round" stroke-width="1"/>
        <text transform="translate(996 546.75)" fill="black">
          <tspan font-family="Helvetica" font-size="12" fill="black" x="16.09668" y="11">Value</tspan>
        </text>
      </g>
      <g id="Line_35">
        <line x1="822.4218" y1="505.75" x2="878.4243" y2="536.7985" stroke="black" stroke-linecap="butt" stroke-linejoin="miter" stroke-width="1"/>
      </g>
      <g id="Line_36">
        <line x1="800.5" y1="505.75" x2="800.5" y2="530.75" stroke="black" stroke-linecap="butt" stroke-linejoin="miter" stroke-width="1"/>
      </g>
      <g id="Line_37">
        <line x1="841" y1="497.23344" x2="988.0569" y2="541.917" stroke="black" stroke-linecap="butt" stroke-linejoin="miter" stroke-width="1"/>
      </g>
      <g id="Line_38">
        <line x1="1031.5769" y1="531.36596" x2="1042.7955" y2="476.5" stroke="#a5a5a5" stroke-linecap="round" stroke-linejoin="round" stroke-dasharray="4.0,4.0" stroke-width="1"/>
      </g>
      <g id="Line_39">
        <line x1="746.434" y1="464.6302" x2="701" y2="447.48344" marker-start="url(#CrowBar_Marker)" stroke="black" stroke-linecap="butt" stroke-linejoin="miter" stroke-width="1"/>
      </g>
      <g id="Graphic_40">
        <rect x="620" y="549" width="81" height="36" fill="white"/>
        <path d="M 620 549 L 701 549 L 701 585 L 620 585 Z" stroke="#a5a5a5" stroke-linecap="round" stroke-linejoin="round" stroke-dasharray="4.0,4.0" stroke-width="1"/>
        <text transform="translate(625 560)" fill="black">
          <tspan font-family="Helvetica" font-size="12" fill="black" x="29.5" y="11">…</tspan>
        </text>
      </g>
      <g id="Line_41">
        <line x1="660.5" y1="534.5" x2="660.5" y2="456" marker-start="url(#CrowBar_Marker_2)" stroke="#a5a5a5" stroke-linecap="butt" stroke-linejoin="miter" stroke-dasharray="4.0,4.0" stroke-width="1"/>
      </g>
      <g id="Graphic_42">
        <rect x="606" y="561" width="81" height="36" fill="white"/>
        <path d="M 606 561 L 687 561 L 687 597 L 606 597 Z" stroke="#a5a5a5" stroke-linecap="round" stroke-linejoin="round" stroke-dasharray="4.0,4.0" stroke-width="1"/>
        <text transform="translate(611 572)" fill="black">
          <tspan font-family="Helvetica" font-size="12" fill="black" x="29.5" y="11">…</tspan>
        </text>
      </g>
      <g id="Graphic_44">
        <rect x="590" y="572" width="81" height="36" fill="white"/>
        <path d="M 590 572 L 671 572 L 671 608 L 590 608 Z" stroke="#a5a5a5" stroke-linecap="round" stroke-linejoin="round" stroke-dasharray="4.0,4.0" stroke-width="1"/>
        <text transform="translate(595 583)" fill="black">
          <tspan font-family="Helvetica" font-size="12" fill="black" x="29.5" y="11">…</tspan>
        </text>
      </g>
      <g id="Graphic_46">
        <ellipse cx="746" cy="602" rx="32.0000511328607" ry="16.0000255664302" fill="white"/>
        <path d="M 768.6274 590.6863 C 781.1242 596.9347 781.1242 607.0653 768.6274 613.3137 C 756.1306 619.5621 735.8694 619.5621 723.3726 613.3137 C 710.8758 607.0653 710.8758 596.9347 723.3726 590.6863 C 735.8694 584.4379 756.1306 584.4379 768.6274 590.6863" stroke="#a5a5a5" stroke-linecap="round" stroke-linejoin="round" stroke-dasharray="4.0,4.0" stroke-width="1"/>
      </g>
      <g id="Graphic_47">
        <ellipse cx="700" cy="639.5" rx="32.0000511328607" ry="16.0000255664302" fill="white"/>
        <path d="M 722.6274 628.1863 C 735.1242 634.4347 735.1242 644.5653 722.6274 650.8137 C 710.1306 657.0621 689.8694 657.0621 677.3726 650.8137 C 664.8758 644.5653 664.8758 634.4347 677.3726 628.1863 C 689.8694 621.9379 710.1306 621.9379 722.6274 628.1863" stroke="#a5a5a5" stroke-linecap="round" stroke-linejoin="round" stroke-dasharray="4.0,4.0" stroke-width="1"/>
      </g>
      <g id="Line_48">
        <line x1="701" y1="585" x2="719.9974" y2="592.1768" stroke="#a5a5a5" stroke-linecap="butt" stroke-linejoin="miter" stroke-dasharray="4.0,4.0" stroke-width="1"/>
      </g>
    </g>
  </g>
</svg>
